<svg xmlns="http://www.w3.org/2000/svg" width="21.054" height="20.554" viewBox="0 0 21.054 20.554">
  <g id="Group_56" data-name="Group 56" transform="translate(0.101 -6.025)">
    <g id="Group_55" data-name="Group 55" transform="translate(0 6.126)">
      <g id="Group_54" data-name="Group 54" transform="translate(0 0)">
        <path id="Path_29" data-name="Path 29" d="M20.84,6.621a.4.4,0,0,0-.47-.487l-.087.018L.64,14.1a1.026,1.026,0,0,0-.071,1.869L5.049,18.2,6.27,25.988a.407.407,0,0,0,.4.49H6.7a.407.407,0,0,0,.343-.188L11.7,22.3l3.636,2.383a1.024,1.024,0,0,0,1.56-.631L20.84,6.623v0Zm-10.495,7.59a.407.407,0,0,0-.57-.08l-4.4,3.318L.931,15.243a.211.211,0,0,1,.015-.385L17.779,8.044l-5.072,3.864a.407.407,0,0,0,.494.648L16.955,9.7,8.043,19.325a.406.406,0,0,0-.091.147L6.783,24l-.924-5.9,4.407-3.323a.407.407,0,0,0,.08-.57ZM7.414,24.9,8.59,20.261l2.4,1.573ZM16.1,23.871a.209.209,0,0,1-.319.13l-6.819-4.47L19.712,7.917Z" transform="translate(0 -6.126)" fill="#fff" stroke="#fff" stroke-width="0.2"/>
      </g>
    </g>
  </g>
</svg>
