<svg xmlns="http://www.w3.org/2000/svg" width="17.999" height="18.002" viewBox="0 0 17.999 18.002">
  <g id="Group_70" data-name="Group 70" transform="translate(-0.898)">
    <path id="Path_30" data-name="Path 30" d="M18.851,5.293a6.579,6.579,0,0,0-.418-2.184A4.612,4.612,0,0,0,15.8.475,6.6,6.6,0,0,0,13.614.056C12.651.011,12.345,0,9.9,0s-2.75.011-3.71.053A6.579,6.579,0,0,0,4.007.471a4.392,4.392,0,0,0-1.6,1.041A4.432,4.432,0,0,0,1.373,3.105,6.6,6.6,0,0,0,.954,5.289C.909,6.253.9,6.559.9,9s.011,2.75.053,3.71A6.578,6.578,0,0,0,1.369,14.9,4.611,4.611,0,0,0,4,17.531a6.6,6.6,0,0,0,2.184.418c.96.042,1.266.053,3.71.053s2.75-.01,3.71-.053a6.577,6.577,0,0,0,2.184-.418A4.6,4.6,0,0,0,18.425,14.9a6.6,6.6,0,0,0,.418-2.184c.042-.96.053-1.266.053-3.71S18.893,6.253,18.851,5.293Zm-1.621,7.35a4.933,4.933,0,0,1-.309,1.67,2.986,2.986,0,0,1-1.709,1.709,4.953,4.953,0,0,1-1.67.309c-.95.042-1.234.053-3.636.053s-2.69-.01-3.636-.053a4.933,4.933,0,0,1-1.67-.309,2.771,2.771,0,0,1-1.034-.672,2.8,2.8,0,0,1-.672-1.034,4.952,4.952,0,0,1-.309-1.67C2.54,11.7,2.53,11.412,2.53,9.01s.01-2.69.053-3.636A4.931,4.931,0,0,1,2.892,3.7a2.736,2.736,0,0,1,.675-1.034A2.794,2.794,0,0,1,4.6,2a4.955,4.955,0,0,1,1.67-.309c.949-.042,1.234-.053,3.636-.053s2.69.011,3.636.053A4.933,4.933,0,0,1,15.215,2a2.768,2.768,0,0,1,1.034.672A2.8,2.8,0,0,1,16.92,3.7a4.954,4.954,0,0,1,.309,1.67c.042.95.053,1.234.053,3.636S17.272,11.693,17.23,12.643Z" transform="translate(0 0)" fill="#fff"/>
    <path id="Path_31" data-name="Path 31" d="M129.8,124.281a4.624,4.624,0,1,0,4.624,4.624A4.626,4.626,0,0,0,129.8,124.281Zm0,7.624a3,3,0,1,1,3-3A3,3,0,0,1,129.8,131.905Z" transform="translate(-119.903 -119.903)" fill="#fff"/>
  </g>
</svg>
