<svg xmlns="http://www.w3.org/2000/svg" width="21.941" height="20.659" viewBox="0 0 21.941 20.659">
  <g id="Group_4" data-name="Group 4" transform="translate(0.127 0.127)">
    <path id="Path_4" data-name="Path 4" d="M21.585,17.045a.7.7,0,0,0-.541-.3l-13.467-.58a.7.7,0,0,0-.06,1.392l12.555.541L17.6,25.8H6.617L4.633,15a.7.7,0,0,0-.431-.522L.951,13.2a.7.7,0,1,0-.51,1.3l2.89,1.135,2.02,11a.7.7,0,0,0,.685.571h.335l-.765,2.125a.581.581,0,0,0,.546.777H6.69a2.09,2.09,0,1,0,3.106,0h4.556a2.09,2.09,0,1,0,3.106,0h.653a.58.58,0,1,0,0-1.161H6.979L7.606,27.2h10.5a.7.7,0,0,0,.663-.484l2.9-9.055A.7.7,0,0,0,21.585,17.045ZM8.243,32.42a.929.929,0,1,1,.929-.929A.93.93,0,0,1,8.243,32.42Zm7.662,0a.929.929,0,1,1,.929-.929A.93.93,0,0,1,15.905,32.42Z" transform="translate(0 -13.148)" fill="#fff" stroke="#fff" stroke-width="0.2"/>
  </g>
</svg>
