<svg id="Group_1" data-name="Group 1" xmlns="http://www.w3.org/2000/svg" width="79.108" height="82.765" viewBox="0 0 79.108 82.765">
  <path id="Path_1" data-name="Path 1" d="M373.362,63.2a12.167,12.167,0,0,1,5.543,5.539,12.4,12.4,0,0,1,.917,4.364,14.265,14.265,0,0,1-.765,5.562A13.346,13.346,0,0,1,377.076,82q-.971,1.15-2.051,2.2c-2.357,2.307-4.968,4.341-7.381,6.59q-.467.435-.923.881c-.23.225-.453.523-.814.413a.56.56,0,0,1-.325-.8c.215-.508.481-1,.707-1.5l1.719-3.644c.293-.592.565-1.195.852-1.79A6.714,6.714,0,0,1,371.3,81.7a6.34,6.34,0,0,1,3.571-1.163,3.05,3.05,0,0,0,2.291-.569A2.938,2.938,0,0,0,378,78.942a16.344,16.344,0,0,0,1.095-4.859,12.71,12.71,0,0,0-.672-4.926c-1.18-3.138-4.153-5.177-7.058-6.566a30.106,30.106,0,0,0-7.336-2.306,65.878,65.878,0,0,0-6.741-.827c-.443-.043-1.3.015-1.74-.009a46.817,46.817,0,0,1,5.285.174c1.975.274,3.95.594,5.892,1.045a27.379,27.379,0,0,1,6.633,2.53m-22.758,31q.712.845,1.406,1.7c.277.343.643.984,1.166.632.419-.282.17-.84.082-1.231q-.382-1.707-.759-3.415-.761-3.444-1.512-6.89a2.684,2.684,0,0,0-.622-1.366,2.238,2.238,0,0,0-1.248-.664,2.27,2.27,0,0,0-1.33.192,6.931,6.931,0,0,1-.76.355c-.573.179-1.078-.563-1.428-.913-.45-.45-.9-.9-1.351-1.351a.723.723,0,0,0-.714-.248.671.671,0,0,0-.467.444c-.063.2-.017.393-.145.578-.292.423-.766.305-1.1.03a9.693,9.693,0,0,1-1.333-1.321,9.245,9.245,0,0,1-1.726-3.2,18.5,18.5,0,0,1-.821-4.38,10.734,10.734,0,0,1,2.439-7.591A14.919,14.919,0,0,1,347.1,61.19a30.453,30.453,0,0,1,8.707-1.548,38.542,38.542,0,0,1,9.03.625q-.759-.178-1.527-.318a41.09,41.09,0,0,0-6.862-.6,32.3,32.3,0,0,0-4.27.206c-4.276.512-8.761,1.755-11.919,4.882a11.933,11.933,0,0,0-2.907,4.636,12.568,12.568,0,0,0-.421,5.977c1.341,9.142,8.135,16.555,9.093,23.727a.526.526,0,0,0,.519.462h.429a.514.514,0,0,0,.5-.627c-.121-.533-.279-1.022-.279-1.022-.288-.893-.462-1.061-.744-1.965a6.775,6.775,0,0,0-.292-.974q-.245-.552-.5-1.1-.54-1.176-1.113-2.338-1.145-2.322-2.416-4.58,1.051,1.246,2.066,2.523c1.332,1.676,2.642,3.387,3.875,5.148a.279.279,0,0,0,.484-.272c-.54-1.212-1.106-2.412-1.761-3.577m19.015,8.328a.507.507,0,0,0,.508.455h.607a.505.505,0,0,0,.5-.394c.018-.083.035-.168.051-.256a15.136,15.136,0,0,1,2.365-5.728c2.317-3.323,5.856-5.488,8.41-8.6a23.882,23.882,0,0,0,3.1-4.975,18.819,18.819,0,0,0,1.687-5.461,16.344,16.344,0,0,1-.633,2.251,22.355,22.355,0,0,1-4.97,7.935c-2.306,2.363-5.153,4.093-7.5,6.411a13.5,13.5,0,0,0-2.9,3.845,12.722,12.722,0,0,0-1.222,4.411.544.544,0,0,0,0,.1v.005M338.344,88.192a3.293,3.293,0,0,0-1.508-3.337,8.276,8.276,0,0,1-1.012-1,1.335,1.335,0,0,0-2.048-.151,58.529,58.529,0,0,1-5.8,3.718,21.755,21.755,0,0,0-5.312,3.447,15.879,15.879,0,0,0-4.025,6.523c-.081.237.251.873.444.9a13.6,13.6,0,0,0,2.831.086c.718-.062,2.122.6,1.637-1.193a1.615,1.615,0,0,1,.616-.037c.809.295,1.584.7,2.409.928a1.936,1.936,0,0,0,1.479-.046c.664-.554-.032-1.114-.327-1.594a12.643,12.643,0,0,0-.964-1.038,2.391,2.391,0,0,1-.255-.713,2.336,2.336,0,0,1,.624.221c.826.6,1.594,1.289,2.466,1.807a1.377,1.377,0,0,0,1.263-.084,1.51,1.51,0,0,0,.419-1.223,6.479,6.479,0,0,0-.685-1.494,1.316,1.316,0,0,1-.035-.437c.183.041.424.022.54.133a6.468,6.468,0,0,1,2.209,5.02.672.672,0,0,0,.341.531c.14.047.44-.124.548-.281a3.127,3.127,0,0,0,.355-2.711,13.417,13.417,0,0,1-.3-1.844c-.017-.134.094-.285.146-.428a1.618,1.618,0,0,1,.243.307c.129.281.156.663.363.841a1.406,1.406,0,0,0,1.009.393c.248-.056.536-.525.575-.839.208-1.709,1.56-4.3,1.757-6.4m4.834,7.795.677-.007a2.543,2.543,0,0,0-.212-.814c-1.049-1.541-2.11-3.073-3.21-4.577A8.713,8.713,0,0,0,339.3,89.5c-.2.524-.435,1.038-.586,1.575a4.1,4.1,0,0,0,.008.86c-.088,1.709.043,3.447-.73,5.066a1.5,1.5,0,0,0-.095,1.032c.121.346.428.807.724.864a1.214,1.214,0,0,0,1.061-.456,8.038,8.038,0,0,0,.566-2.044c.321-1.734.575-1.851,2.044-.883.239.158.508.272.889.472m32.674-6.43c.044.462.88,1.492.982,2.553.118,1.227-1.365,2.349-.266,3.814a1.647,1.647,0,0,0,1.788.456c.35-.025.583-.812.852-1.042.208-.178.235-.559.364-.841a1.6,1.6,0,0,1,.243-.307c.052.143.163.293.146.428a13.436,13.436,0,0,1-.3,1.844,1.737,1.737,0,0,0,.357,1.962c.107.158.407.328.548.281a.671.671,0,0,0,.34-.531c-.057-2.029.78-2.907,2.208-4.271.116-.111.154-.271.477-.2.133.082.2.148.028.5a6.072,6.072,0,0,0-.685,1.494,1.509,1.509,0,0,0,.419,1.223,1.377,1.377,0,0,0,1.263.084c.871-.518,1.64-1.208,2.465-1.806.172-.125.3-.284.636-.144.065.325-.118.447-.266.635a12.726,12.726,0,0,0-.965,1.037c-.294.481-.99,1.041-.327,1.595a1.935,1.935,0,0,0,1.478.046c.825-.231,1.6-.633,2.41-.928.177-.065-4.363.265-4.156.281-.485,1.79,5.69.887,6.409.948a13.567,13.567,0,0,0,2.831-.085c.193-.024.524-.66.444-.9-.839-2.477-2.5-3.774-4.4-5.58-1.54-1.468-2.205-3.708-4.108-4.675-1.6-.812-3.954-1.515-5.414-2.561-.832-.6-1.512-.981-2.154-.3a21.268,21.268,0,0,1-1.365,1.8c-1.273.946-2.524,2.028-2.279,3.186m-5.123,7.694h.005a.463.463,0,0,0,.209-.086,8.593,8.593,0,0,0,.712-.531c1.306-1.179-2.006-1.134-1.426.532.233.669,1.718.279,2.84.6.3.085,2.511,1.529,2.824,1.417a.841.841,0,0,0,.487-.725,1.5,1.5,0,0,0-.25-1.006,6.533,6.533,0,0,1-1.033-4.91,3.457,3.457,0,0,0-.329-1.242c-.2-.443-.1-.77-.829-1.089a.546.546,0,0,0-.644.222l-.55,1.047c-.469.9-1.776,1.722-2.225,2.634a5.109,5.109,0,0,0-.359,2.707M357.675,35.986a26.79,26.79,0,0,0-3.027.274,1.217,1.217,0,0,0-.773.919,1.23,1.23,0,0,0,.932.772c1.4,0,2.807-.114,4.2-.254a7.173,7.173,0,0,1,3.614.616l.006,0a.452.452,0,0,1,.035.788.48.48,0,0,1-.213.089c-1.474.161-2.959.231-4.431.405a9.093,9.093,0,0,0-1.99.519c-.233.084-.574.516-.525.6a1.556,1.556,0,0,0,.776.719,4.378,4.378,0,0,0,1.387,0c1.324-.091,2.648-.273,3.97-.273a5.617,5.617,0,0,1,2.217.484,3.042,3.042,0,0,1,.9.725.247.247,0,0,1-.209.414c-.335-.026-.669-.051-1-.068a22.589,22.589,0,0,0-2.963-.086.608.608,0,0,0-.393,1.035c.268.362.579.7.829,1.068.84,1.254-12.114,6.087-12.2,7.759a2.027,2.027,0,0,0,.55,1.172c1.289,1.606,16.514-.49,16.6,1.7.044,1.149,1.931,2.143,3.252,1.885a.876.876,0,0,0,.549-.6c.129-1.108.174-2.224.263-3.337.011-.137-.072-.248.258-.337.361.019.5.739.532.862a23.322,23.322,0,0,1,.719,3.067c.044.319.126.84-.07,1.046-.671.7-.24,1.2.146,1.781a8.807,8.807,0,0,1,.861,1.516c.57,1.387,1.32-.368,2.267.343.583.439.538-.5.925-.069,1.154,1.274,2.151,2.64,4.229,2.807,1.209.1,3,2.275,3.224,3.816.4,2.678.232,2.98.036,3.927-.023.113-.243.572-.2.531a2.107,2.107,0,0,0,.542-1.168c.653-2.581-.575-5.373-2-8.54-.93-2.065-1.9-3.347-2.641-5.3a46.1,46.1,0,0,0-2.317-5.237c-1.757-3.316-3.741-6.519-5.494-9.837-2.619-4.954-8.316-7.208-13.375-6.54" transform="translate(-316.581 -35.871)" fill="#e10c1c"/>
  <path id="Path_2" data-name="Path 2" d="M393.421,170.956a.721.721,0,0,0,.032-.766c-.041-.071-.077-.133-.1-.168l-.009-.019a1,1,0,0,0-.144-.186c-.03-.031-.063-.062-.1-.092-.863-.741-3.223-1.179-5.157-.639a.93.93,0,0,0-.666.7c-.221,1.074.2,2.273,1.27,1.921a9.936,9.936,0,0,1,4.091-.223.721.721,0,0,0,.628-.311Z" transform="translate(-348.133 -97.034)" fill="#e10c1c"/>
  <path id="Path_3" data-name="Path 3" d="M328.6,163.631c0-.273.006-.536.016-.793a7.781,7.781,0,0,0-3.44-1.671c1.942-1.046,2.166-2.191,2.166-2.191,0-1.2-.2-2.714-1.021-3.312a20.91,20.91,0,0,0-6.871-.1c-1.071-.722-2.889.05-2.889.05a.837.837,0,0,1,.1.3c-.448.075-.723.125-.723.125a2.291,2.291,0,0,0,.423,2.216,1.214,1.214,0,0,0,.573.1c.05.722.1,1.543.149,2.415a8.986,8.986,0,0,0-1.551.684.377.377,0,0,0-.117.064c-.821,1.892.5,2.689.5,2.689.448-.025.871-.05,1.27-.05.05,1.344.075,2.714.1,3.984a8.961,8.961,0,0,1-2.44-.921,4.91,4.91,0,0,0,2.515,4.034,17.793,17.793,0,0,0,.1,1.963c0,.006,0,.01,0,0,.043-.011.1-.089.153-.179.319-.362,1.011-1.125,1.091-1.265a15.406,15.406,0,0,0,4.058.274c3.308-.019,6.174-1,7.162-3.3A10.5,10.5,0,0,1,328.6,163.631Zm-4.669-5.577a13.032,13.032,0,0,1-3.635,1.718c0-.523-.025-1.046-.025-1.618A14.4,14.4,0,0,1,323.927,158.053Zm3.262,8.441a11.8,11.8,0,0,1-7.271,1.967c.125-.921.274-2.341.349-4.357C327.562,164.278,327.189,166.494,327.189,166.494Zm8.366-10.707a.7.7,0,0,0-.474.623.776.776,0,0,1-.045.432c-.294-.919-1.958-2.141-3.067-1.552-.15.075-2.888,1.892-2.888,8.341,0,3.71,2.241,8.664,7.594,8.664,1.992,0,5.6-3.038,5.6-9.312C342.277,156.236,337.671,154.842,335.555,155.787Zm.2,14.218c-.474-.05-2.839-1.594-2.839-6.424,0-4.607,2.166-5.826,2.166-6.473,0-.024,0-.049,0-.073l.079.023s3.635-.274,3.635,5.926C338.791,167.889,336.525,170.08,335.754,170.005Zm6.947,2.862.006,0Zm12.529-16.232c-.05.847-2.739,3.063-5.9,6.922a25.751,25.751,0,0,0,4.9,6.49.952.952,0,0,1,.279.895l0,.01c0,.006,0,.014,0,.022a1.557,1.557,0,0,1-.135.292.234.234,0,0,1-.045.018.41.41,0,0,0-.061.048c-.043.038-.071.086-.118.109-.075.075-.087.133-.161.183a2.908,2.908,0,0,1-2.963.274,19.636,19.636,0,0,1-4.283-4.93,45.2,45.2,0,0,0-3.324,5.674.324.324,0,0,1-.2.169l-.188.057c-.145.041-.172-.007-.172-.007l-.077-.042a.9.9,0,0,0-.351-.061.557.557,0,0,1-.184-.032.7.7,0,0,1-.361-.28,1.96,1.96,0,0,1-.179-.841,1.821,1.821,0,0,1,.067-.558,25.4,25.4,0,0,1,3.323-6.717,57.9,57.9,0,0,1-3.909-7.918,4.954,4.954,0,0,1,3.013-1.594c1.643,0,2.266,2.39,3.685,5.7a49.612,49.612,0,0,1,5.3-5.826S355.329,155.091,355.229,156.634Zm18.238,1.343c-.02.021-.041.041-.063.062s-.036.035-.056.052-.048.038-.072.056-.042.032-.064.046-.055.033-.083.05-.047.028-.072.04-.063.029-.1.043-.051.023-.079.033-.072.024-.109.035-.055.018-.085.026-.084.018-.127.027-.057.013-.087.018c-.05.008-.1.013-.156.019-.027,0-.052.007-.08.009-.083.006-.168.01-.259.01l-.053,0h0l-.038,0h-.013l-.027,0-.041,0H371.8l-.074,0H371.7l-.068,0-.052,0-.057,0-.34.022-.194.012-.08.005-.468.03-.576.036h-.014l-1.088.069-.034,0-.2.012-.084.005-.1.006-.129.008-.375.023-.145.009-.069,0-.123.008-.179.011h-.018l-.192.012-.108.007-.1.006-.125.008-.125.008-.118.007-.059,0a.12.12,0,0,0-.112.116q-.032.91-.065,1.819a.142.142,0,0,0,.157.145l.09-.009.176-.018.183-.018.178-.017.181-.017.18-.016.183-.015.178-.015.185-.014.175-.013.183-.013.174-.012.18-.011.174-.011.173-.01.174-.01.175-.009.163-.009.181-.009.148-.007.185-.008.134-.006.2-.008.109,0,.279-.009h.014l.28-.008h.029l.232,0h.069l.162,0h.018a.186.186,0,0,1,.174.257l-.009.02h0l0,.009c-.011.025-.022.05-.032.073h0l-.108.387-.021.163-.009.073a.2.2,0,0,1-.017.136,7.1,7.1,0,0,1-1.244,1.219h0l-1.069.522h0l-.032.016h0l-.013.006-.028.014-.018.009-.035.017-.026.012-.045.022-.018.009-.059.028-.025.012-.067.031-.017.009-.093.044-.015.007-.08.037-.032.015-.062.029-.043.02-.056.026-.041.018-.058.027-.039.017-.059.026-.032.015-.069.03-.02.009-.079.034-.021.009-.043.018h0l-.016.006-.023,0-.017,0-.023,0-.024,0-.031.006-.03.006-.039.009-.035.008-.049.011-.038.009-.053.013-.047.011-.06.015-.047.012-.082.021-.036.009-.126.032h0l-.14.036-.048.012-.092.024-.078.021-.075.019-.12.031-.021.006-.121.032-.054.014-.09.023-.084.023-.107.028a.143.143,0,0,0-.106.13l-.008.121,0,.064-.012.2,0,.062-.012.185-.005.081-.009.151-.007.108-.011.166,0,.065-.011.178,0,.071-.01.157-.005.082-.009.131-.008.106-.011.176,0,.025-.012.181,0,.046-.012.178,0,.029-.01.143-.005.078-.008.109-.006.084-.007.1-.006.09c-.008.108-.015.211-.022.311l0,.035-.009.132,0,.033-.007.088-.005.079-.005.07,0,.071c-.005.071-.01.138-.015.2-.008.11-.016.211-.022.3l-.017.223-.005.069-.006.086,0,.039,0,.067c-.03.386-.667.9-.9,1.444a8.416,8.416,0,0,1-1.669,1.7l-.007.009h0c-.063.076-.14.154-.191.154-.009-.047-.018-.121-.026-.22h0v0c0-.043-.008-.092-.011-.145v-.017c0-.052-.008-.108-.011-.168l0-.03c0-.06-.007-.124-.01-.192l0-.035c0-.069-.007-.141-.01-.218l0-.037c0-.079-.007-.161-.01-.247v-.03c0-.09-.007-.183-.011-.28v-.019c0-.1-.007-.207-.011-.316h0c0-.108-.007-.22-.011-.335V170.6c0-.113-.007-.229-.011-.348v-.031c0-.114-.007-.231-.01-.349l0-.071c0-.112-.006-.226-.01-.342l0-.076q-.011-.388-.022-.8l-.005-.192,0-.176-.015-.553,0-.074c0-.146-.008-.295-.012-.444v-.03l-.011-.408,0-.124-.011-.4,0-.1q-.006-.216-.012-.433l0-.076q-.006-.223-.013-.447l0-.069q-.007-.237-.014-.475v-.014q-.007-.245-.016-.491v-.028l-.016-.487,0-.043q-.007-.232-.016-.462l0-.075q-.007-.223-.016-.444l0-.088c-.005-.147-.011-.294-.017-.439l0-.073-.018-.45,0-.058q-.009-.228-.019-.453l0-.048c-.007-.154-.014-.307-.021-.459v-.016c-.006-.15-.014-.3-.021-.445l0-.039c-.008-.145-.015-.288-.022-.429l0-.052q-.011-.207-.023-.407l0-.036a.121.121,0,0,0-.088-.109l-.162-.042-.055-.013h0c-2.055-.576-1.893-1.992-1.893-1.992l.144-.02.111-.017.013,0,.131-.021.025,0,.163-.026.029,0,.4-.066.064-.01.188-.031.611-.1.017,0a.127.127,0,0,0,.106-.134l0-.056-.01-.094c0-.037-.008-.073-.011-.109l-.01-.09c0-.035-.009-.07-.012-.1s-.007-.056-.011-.083-.009-.067-.013-.1-.007-.052-.011-.077-.01-.065-.015-.1l-.01-.067c-.005-.033-.011-.065-.017-.1l-.01-.056c-.006-.035-.012-.068-.019-.1l-.008-.043c-.009-.046-.018-.09-.027-.132-.025-.1.1-.324.348-.4l.08-.024.025-.007.059-.016.041-.01.051-.014.037-.009.058-.014.046-.01.055-.011.05-.01.055-.011.051-.009.057-.009.052-.008.059-.009.055-.006.06-.006.057-.005.06,0,.058,0,.062,0,.059,0h.187l.06,0,.065,0,.061.005.065.006.061.008.065.009.062.011.064.012.061.014.064.016.061.017.064.019.06.021.064.023.06.024.063.027.059.028.062.031.058.032.06.036.057.037.059.04.056.041.057.045c.018.015.036.03.054.046l.056.05.052.05.053.055.05.056.051.06.048.061.049.066.045.067c.016.023.031.047.046.071s.029.048.043.073.029.051.043.077.028.052.04.079.015.026.022.041a.122.122,0,0,0,.129.069l.073-.012.175-.029.119-.019.156-.025.145-.024.139-.023.117-.019.181-.03.059-.01.215-.036.082-.014.474-.08.129-.022.894-.153.069-.012.163-.029.105-.018.127-.022.14-.025.119-.021.133-.024.12-.021.138-.025.1-.019.14-.025.113-.021.121-.022.119-.022.116-.022.11-.021.116-.022.107-.021.111-.021.1-.02.11-.021.094-.019.108-.021.09-.018.1-.02.088-.018.093-.019.086-.018.085-.018.082-.018.081-.018.075-.017.075-.017.071-.017.07-.017.063-.015.064-.016.058-.015.056-.015.053-.015.051-.015.044-.013.078-.024a.509.509,0,0,1,.056.057l0,0,.028.035.022.028c.011.015.023.033.035.05l.021.03c.014.022.028.046.042.071l.014.023c.019.033.038.069.057.107l.007.014c.017.033.033.068.05.1l.02.045.036.083.021.053.032.083.021.06c.01.028.02.056.029.084s.014.043.021.065l.026.086.019.07.023.087c.006.024.011.049.017.073l.019.088c0,.025.009.05.014.076s.011.059.016.089.008.051.011.077.009.06.012.09.005.052.008.078.005.06.007.09,0,.052,0,.078,0,.06,0,.09,0,.052,0,.078,0,.059,0,.089,0,.052-.005.078-.005.058-.009.087-.007.051-.011.077-.009.057-.015.085-.01.05-.016.075-.014.055-.022.082-.014.049-.022.073-.018.053-.029.079-.018.046-.028.069-.024.051-.036.076-.023.045-.035.066-.029.048-.044.071-.027.042-.042.062-.035.045-.053.067S373.485,157.958,373.468,157.977Zm4.717,1.473c-.136,4.623-.6,9.782-.6,9.782l-.026.208a2.581,2.581,0,0,1-.737,1.5,16.515,16.515,0,0,1-1.664,1.552c-.133-.012-.132-.35-.132-.35h0c-.163-1.839-.277-14.175-.851-16.8a.46.46,0,0,1,.324-.374,2.7,2.7,0,0,1,3.1.839,3.751,3.751,0,0,0-.218,1.676A3.129,3.129,0,0,0,378.184,159.45Zm15.763-3.813a4.2,4.2,0,0,1-3.063,3.286c-1.27.05-2.44.125-3.485.175-.12,4.057-.6,8.568-.778,10.16a3.918,3.918,0,0,1-.311,1.148,12.433,12.433,0,0,1-.545,1.143c-.109.127-.873,1.2-1,1.454a.3.3,0,0,1-.147.123.611.611,0,0,1-.847-.548c-.08-2.169-.087-8.745-.281-13.281-2.241.124-3.511.2-3.934.224-2.091.049-2.141-4.034-.8-4.233a33.7,33.7,0,0,1,4.457-.224.778.778,0,0,1,.274-.2,3.245,3.245,0,0,1,2.664.274C388.619,155.239,391.283,155.438,393.947,155.637Z" transform="translate(-314.839 -90.454)" fill="#fff"/>
</svg>
