<svg xmlns="http://www.w3.org/2000/svg" width="180" height="180" viewBox="0 0 180 180">
  <g id="Group_65" data-name="Group 65" transform="translate(-870 -4791)">
    <g id="Group_64" data-name="Group 64">
      <circle id="Ellipse_6" data-name="Ellipse 6" cx="90" cy="90" r="90" transform="translate(870 4791)"/>
      <g id="Group_63" data-name="Group 63" transform="translate(908.148 4823.37)">
        <path id="Path_1" data-name="Path 1" d="M390.98,71.993a16.083,16.083,0,0,1,7.327,7.322,16.393,16.393,0,0,1,1.212,5.769,18.858,18.858,0,0,1-1.011,7.353,17.641,17.641,0,0,1-2.618,4.408q-1.284,1.521-2.711,2.914c-3.116,3.05-6.567,5.738-9.756,8.711q-.617.575-1.22,1.165c-.3.3-.6.692-1.076.545a.74.74,0,0,1-.43-1.057c.284-.672.636-1.321.934-1.984l2.272-4.816c.387-.782.747-1.579,1.126-2.366a8.875,8.875,0,0,1,3.222-3.5,8.381,8.381,0,0,1,4.721-1.538A4.032,4.032,0,0,0,396,94.168a3.884,3.884,0,0,0,1.115-1.363,21.607,21.607,0,0,0,1.447-6.423,16.8,16.8,0,0,0-.888-6.511c-1.56-4.148-5.49-6.843-9.33-8.68a39.8,39.8,0,0,0-9.7-3.049,87.083,87.083,0,0,0-8.911-1.094c-.585-.056-1.713.02-2.3-.012a61.886,61.886,0,0,1,6.986.231c2.611.362,5.221.785,7.789,1.381a36.192,36.192,0,0,1,8.768,3.344M360.9,112.966q.941,1.117,1.858,2.253c.366.453.849,1.3,1.541.835.553-.373.225-1.11.109-1.627q-.505-2.256-1-4.514-1.006-4.552-2-9.107A3.548,3.548,0,0,0,360.58,99a2.959,2.959,0,0,0-1.65-.877,3,3,0,0,0-1.758.254,9.165,9.165,0,0,1-1.005.469c-.757.237-1.426-.745-1.887-1.206-.6-.6-1.186-1.2-1.786-1.786a.955.955,0,0,0-.944-.328.886.886,0,0,0-.617.587c-.083.267-.023.519-.192.765-.385.559-1.013.4-1.458.04a12.811,12.811,0,0,1-1.763-1.746,12.22,12.22,0,0,1-2.282-4.225,24.459,24.459,0,0,1-1.085-5.789,14.189,14.189,0,0,1,3.224-10.035,19.721,19.721,0,0,1,8.895-5.782,40.254,40.254,0,0,1,11.509-2.047,50.948,50.948,0,0,1,11.936.827q-1-.236-2.018-.42a54.315,54.315,0,0,0-9.07-.795,42.7,42.7,0,0,0-5.644.273c-5.652.677-11.581,2.319-15.756,6.454a15.772,15.772,0,0,0-3.843,6.128,16.612,16.612,0,0,0-.557,7.9c1.772,12.085,10.754,21.883,12.02,31.364a.7.7,0,0,0,.686.611h.567a.679.679,0,0,0,.662-.829c-.16-.7-.368-1.351-.368-1.351-.381-1.18-.611-1.4-.984-2.6a8.954,8.954,0,0,0-.385-1.288q-.323-.729-.655-1.453-.714-1.555-1.471-3.09-1.514-3.07-3.194-6.054,1.39,1.647,2.731,3.334c1.76,2.216,3.493,4.477,5.122,6.8a.369.369,0,0,0,.64-.36c-.714-1.6-1.461-3.189-2.327-4.729m25.135,11.009a.67.67,0,0,0,.671.6h.8a.668.668,0,0,0,.656-.52c.024-.109.046-.222.068-.338a20.009,20.009,0,0,1,3.126-7.572c3.063-4.393,7.74-7.255,11.117-11.371a31.571,31.571,0,0,0,4.1-6.577,24.875,24.875,0,0,0,2.23-7.219,21.611,21.611,0,0,1-.837,2.975A29.551,29.551,0,0,1,396.37,99.5c-3.048,3.123-6.811,5.41-9.914,8.475a17.849,17.849,0,0,0-3.834,5.083,16.817,16.817,0,0,0-1.615,5.831.724.724,0,0,0,0,.136v.007m-36.317-14a4.353,4.353,0,0,0-1.993-4.411A10.945,10.945,0,0,1,341.36,99.3a1.765,1.765,0,0,0-2.708-.2,77.371,77.371,0,0,1-7.667,4.915,28.758,28.758,0,0,0-7.022,4.557,20.99,20.99,0,0,0-5.321,8.623c-.106.313.331,1.154.587,1.186a17.979,17.979,0,0,0,3.742.114c.949-.081,2.8.789,2.164-1.577a2.134,2.134,0,0,1,.814-.049c1.069.39,2.094.922,3.185,1.227a2.559,2.559,0,0,0,1.955-.061c.877-.732-.043-1.473-.432-2.107a16.709,16.709,0,0,0-1.275-1.372,3.162,3.162,0,0,1-.338-.942,3.087,3.087,0,0,1,.825.292c1.091.792,2.107,1.7,3.259,2.389a1.821,1.821,0,0,0,1.669-.111,2,2,0,0,0,.554-1.616,8.566,8.566,0,0,0-.905-1.975,1.74,1.74,0,0,1-.046-.578c.242.054.56.029.714.176a8.55,8.55,0,0,1,2.92,6.636.888.888,0,0,0,.45.7c.186.062.582-.163.724-.372a4.133,4.133,0,0,0,.47-3.584,17.738,17.738,0,0,1-.4-2.438c-.022-.178.124-.376.193-.565a2.14,2.14,0,0,1,.321.405c.17.372.206.877.48,1.112a1.859,1.859,0,0,0,1.333.52c.328-.074.709-.694.76-1.109.275-2.259,2.062-5.682,2.323-8.466m6.39,10.3.9-.009a3.359,3.359,0,0,0-.28-1.076c-1.386-2.037-2.789-4.063-4.243-6.051a11.518,11.518,0,0,0-1.5-1.438c-.265.692-.575,1.372-.775,2.082a5.418,5.418,0,0,0,.01,1.137c-.116,2.259.057,4.556-.965,6.7a1.977,1.977,0,0,0-.126,1.364c.16.458.566,1.066.956,1.142a1.6,1.6,0,0,0,1.4-.6,10.625,10.625,0,0,0,.749-2.7c.425-2.292.76-2.447,2.7-1.167.316.209.672.359,1.175.624m43.191-8.5c.058.611,1.164,1.972,1.3,3.374.156,1.622-1.8,3.105-.352,5.041a2.178,2.178,0,0,0,2.363.6c.463-.034.77-1.074,1.126-1.378.275-.236.311-.74.481-1.112a2.111,2.111,0,0,1,.321-.405c.069.189.216.388.193.565a17.749,17.749,0,0,1-.4,2.438,2.3,2.3,0,0,0,.473,2.593c.141.208.538.433.724.371a.887.887,0,0,0,.45-.7c-.075-2.683,1.031-3.843,2.919-5.645.154-.147.2-.358.631-.265.176.108.258.2.036.667a8.029,8.029,0,0,0-.905,1.975,2,2,0,0,0,.554,1.616,1.821,1.821,0,0,0,1.669.111c1.151-.685,2.167-1.6,3.259-2.388.227-.165.4-.375.84-.19.086.43-.156.591-.352.84a16.82,16.82,0,0,0-1.275,1.371c-.389.635-1.309,1.376-.432,2.108a2.557,2.557,0,0,0,1.954.061c1.09-.306,2.115-.837,3.185-1.227.234-.086-5.767.351-5.494.372-.642,2.366,7.522,1.172,8.471,1.253a17.933,17.933,0,0,0,3.742-.113c.256-.032.692-.873.587-1.186-1.109-3.274-3.311-4.988-5.816-7.376-2.036-1.941-2.915-4.9-5.43-6.18-2.114-1.074-5.226-2-7.157-3.385-1.1-.787-2-1.3-2.848-.4a28.135,28.135,0,0,1-1.8,2.381c-1.683,1.25-3.337,2.681-3.012,4.211M387.5,117.008h.007a.612.612,0,0,0,.276-.114,11.376,11.376,0,0,0,.941-.7c1.726-1.559-2.651-1.5-1.885.7.308.884,2.272.368,3.754.8.392.113,3.319,2.021,3.733,1.873a1.111,1.111,0,0,0,.643-.958,1.977,1.977,0,0,0-.33-1.329,8.636,8.636,0,0,1-1.365-6.49,4.569,4.569,0,0,0-.435-1.642c-.266-.585-.135-1.017-1.1-1.439a.721.721,0,0,0-.851.294l-.727,1.383c-.62,1.191-2.348,2.276-2.941,3.481a6.754,6.754,0,0,0-.475,3.578m-16.5-80.419a35.411,35.411,0,0,0-4,.363,1.609,1.609,0,0,0-1.022,1.214,1.626,1.626,0,0,0,1.231,1.021c1.852,0,3.71-.151,5.556-.336a9.482,9.482,0,0,1,4.777.815l.008,0a.6.6,0,0,1,.046,1.042.634.634,0,0,1-.282.117c-1.948.213-3.911.306-5.857.535a12.019,12.019,0,0,0-2.631.686c-.308.111-.759.682-.694.79a2.056,2.056,0,0,0,1.025.951,5.787,5.787,0,0,0,1.834,0c1.75-.121,3.5-.361,5.248-.36a7.425,7.425,0,0,1,2.93.64,4.02,4.02,0,0,1,1.2.959.327.327,0,0,1-.276.548c-.443-.035-.884-.068-1.328-.09a29.859,29.859,0,0,0-3.917-.114.8.8,0,0,0-.519,1.368c.354.479.766.919,1.1,1.412,1.111,1.658-16.013,8.046-16.123,10.257a2.68,2.68,0,0,0,.727,1.55c1.7,2.123,21.829-.647,21.941,2.246.059,1.519,2.552,2.833,4.3,2.492a1.157,1.157,0,0,0,.726-.788c.171-1.465.23-2.94.348-4.412.014-.181-.1-.328.341-.445.478.025.665.977.7,1.139a30.83,30.83,0,0,1,.951,4.054c.059.421.167,1.111-.093,1.383-.887.929-.317,1.592.193,2.354a11.643,11.643,0,0,1,1.139,2c.754,1.834,1.745-.486,3,.453.771.58.712-.655,1.223-.091,1.525,1.685,2.844,3.49,5.59,3.71,1.6.128,3.96,3.007,4.262,5.044.525,3.54.306,3.939.048,5.19-.031.15-.322.757-.265.7a2.785,2.785,0,0,0,.717-1.544c.864-3.412-.76-7.1-2.646-11.288-1.229-2.73-2.512-4.424-3.491-7a60.951,60.951,0,0,0-3.063-6.923c-2.323-4.384-4.945-8.618-7.263-13-3.462-6.548-10.993-9.529-17.679-8.645" transform="translate(-315.923 -35.871)" fill="#e10c1c"/>
        <path id="Path_2" data-name="Path 2" d="M395.415,171.635a.953.953,0,0,0,.043-1.012c-.054-.094-.1-.176-.13-.222l-.012-.026a1.318,1.318,0,0,0-.191-.246c-.04-.041-.083-.082-.129-.122-1.141-.979-4.26-1.558-6.817-.845a1.23,1.23,0,0,0-.88.929c-.292,1.419.262,3,1.678,2.539,1.8-.585,2.9-.419,5.408-.295a.954.954,0,0,0,.83-.41Z" transform="translate(-335.551 -73.92)" fill="#e10c1c"/>
        <path id="Path_3" data-name="Path 3" d="M333.024,166.557c0-.361.009-.708.021-1.049A10.285,10.285,0,0,0,328.5,163.3c2.567-1.383,2.863-2.9,2.863-2.9,0-1.58-.263-3.587-1.35-4.377-2.238-.658-6.056-.46-9.083-.132-1.416-.954-3.818.066-3.818.066a1.107,1.107,0,0,1,.132.395c-.592.1-.955.165-.955.165a3.029,3.029,0,0,0,.56,2.929,1.6,1.6,0,0,0,.757.132c.066.954.131,2.04.2,3.192a11.877,11.877,0,0,0-2.05.9.5.5,0,0,0-.155.084c-1.086,2.5.659,3.555.659,3.555.592-.034,1.151-.066,1.678-.066.066,1.777.1,3.587.131,5.266a11.845,11.845,0,0,1-3.225-1.218,6.49,6.49,0,0,0,3.324,5.332,23.528,23.528,0,0,0,.13,2.594c0,.009,0,.013,0,.006.057-.014.128-.118.2-.236.422-.479,1.337-1.487,1.443-1.673a20.365,20.365,0,0,0,5.365.362c4.372-.025,8.161-1.316,9.468-4.361A13.879,13.879,0,0,1,333.024,166.557Zm-6.172-7.373a17.226,17.226,0,0,1-4.8,2.271c0-.691-.033-1.382-.033-2.139C324.252,159.119,326.457,158.954,326.852,159.184Zm4.312,11.158a15.6,15.6,0,0,1-9.611,2.6c.165-1.217.363-3.094.461-5.759C331.658,167.413,331.164,170.342,331.164,170.342Zm11.058-14.153a.922.922,0,0,0-.626.823,1.027,1.027,0,0,1-.06.571c-.389-1.215-2.589-2.83-4.054-2.052-.2.1-3.818,2.5-3.818,11.026,0,4.9,2.962,11.453,10.038,11.453,2.633,0,7.406-4.015,7.406-12.309C351.109,156.782,345.02,154.939,342.223,156.189Zm.263,18.794c-.626-.066-3.753-2.107-3.753-8.491,0-6.089,2.863-7.7,2.863-8.557,0-.031,0-.064-.006-.1l.1.03s4.8-.362,4.8,7.833C346.5,172.185,343.505,175.082,342.486,174.983Zm9.182,3.783.008,0C351.644,178.773,351.647,178.772,351.668,178.766Zm16.562-21.457c-.066,1.119-3.621,4.048-7.8,9.15a34.04,34.04,0,0,0,6.48,8.579,1.259,1.259,0,0,1,.368,1.183l0,.013c0,.009,0,.019,0,.029a2.059,2.059,0,0,1-.178.385.309.309,0,0,1-.06.024.544.544,0,0,0-.081.063c-.057.05-.094.113-.156.144-.1.1-.115.176-.214.242a3.844,3.844,0,0,1-3.916.363,25.956,25.956,0,0,1-5.662-6.517,59.752,59.752,0,0,0-4.394,7.5.429.429,0,0,1-.261.223l-.249.076c-.191.054-.228-.009-.228-.009l-.1-.055a1.184,1.184,0,0,0-.464-.081.736.736,0,0,1-.243-.043.929.929,0,0,1-.478-.37,2.592,2.592,0,0,1-.236-1.112,2.408,2.408,0,0,1,.088-.738,33.573,33.573,0,0,1,4.393-8.879,76.536,76.536,0,0,1-5.168-10.467s1.91-2.107,3.983-2.107c2.172,0,3,3.16,4.871,7.538a65.578,65.578,0,0,1,7.011-7.7S368.361,155.268,368.23,157.308Zm24.108,1.775c-.026.028-.054.054-.083.081s-.048.046-.074.069-.064.05-.1.074-.055.042-.084.061-.073.044-.11.066-.062.036-.095.053-.083.038-.126.056-.068.03-.1.044-.1.031-.144.046-.073.024-.112.034-.111.024-.168.036c-.039.008-.076.017-.116.024-.066.011-.136.017-.206.025-.036,0-.069.009-.106.012-.109.008-.223.013-.343.013l-.07,0h0l-.051,0h-.017l-.036,0-.054,0h-.008l-.1.006h-.03l-.089.006-.069,0-.076,0-.45.029-.256.016-.106.007-.618.039-.761.048h-.018l-1.438.091-.045,0-.261.016-.111.007-.128.008-.17.011-.5.031-.191.012-.091.006-.163.01-.237.014h-.024l-.253.016-.143.009-.138.009-.165.01-.165.01-.156.009-.079,0a.158.158,0,0,0-.148.153q-.043,1.2-.086,2.4a.188.188,0,0,0,.207.192l.119-.012.232-.024.241-.024.235-.022.239-.022.238-.021.242-.02.235-.019.245-.019.232-.017.242-.017.23-.016.238-.015.231-.015.228-.014.23-.014.231-.012.216-.012.24-.011.2-.009.244-.011.178-.008.261-.01.144-.005.368-.012h.018l.37-.01h.038l.306-.006h.091l.214,0h.024a.246.246,0,0,1,.231.339l-.011.026h0l-.006.012c-.014.034-.029.066-.043.1h0l-.143.511-.027.216-.011.1a.269.269,0,0,1-.023.179,9.381,9.381,0,0,1-1.645,1.612h0l-1.413.69h0l-.042.021h0l-.017.008-.037.019-.024.011-.046.022-.034.016-.06.029-.024.011-.078.037-.034.016-.089.041-.023.011-.123.058-.02.009-.106.049-.043.02-.081.038-.057.026-.074.034-.054.024-.076.036-.051.023-.078.035-.043.019-.091.04-.026.011-.1.045-.027.011-.056.024h0l-.021.009-.031,0-.022,0-.031.006-.031.006-.041.009-.04.009-.051.011-.046.011-.064.015-.051.012-.071.017-.062.015-.08.02-.062.016-.108.027-.048.012-.166.043h0l-.185.048-.064.016-.122.031-.1.027-.1.026-.159.041-.027.008-.161.042-.071.019-.118.031-.111.03-.141.037a.189.189,0,0,0-.141.171l-.01.16,0,.084-.016.263-.005.081-.016.245-.007.107-.012.2-.009.143-.014.219-.006.086-.015.235-.006.094-.014.208-.007.109-.011.173-.01.141-.015.233,0,.033-.016.24,0,.061-.016.235,0,.038-.014.189-.007.1-.01.143-.008.111-.009.138-.009.119c-.01.143-.02.279-.029.411l0,.046-.012.175,0,.044-.009.116-.007.1-.007.092-.006.093c-.007.094-.014.183-.02.268-.011.146-.021.278-.029.4s-.016.211-.022.295l-.007.091-.009.114,0,.052-.006.089c-.039.51-.882,1.193-1.185,1.909a11.123,11.123,0,0,1-2.207,2.252l-.009.012h0c-.084.1-.185.2-.252.2-.012-.062-.024-.16-.035-.291h0v0c-.005-.057-.01-.122-.015-.192l0-.023c0-.069-.01-.143-.014-.222l0-.04c-.005-.079-.009-.163-.014-.253l0-.046c0-.091-.009-.187-.014-.288l0-.049c0-.1-.009-.213-.014-.326v-.039c-.005-.119-.009-.242-.014-.37v-.026c-.005-.135-.009-.273-.014-.418h0c-.005-.143-.009-.291-.014-.443v-.036c0-.149-.009-.3-.014-.46v-.041c-.005-.151-.009-.3-.014-.462l0-.094c0-.148-.009-.3-.013-.453l0-.1q-.015-.513-.029-1.06l-.007-.254-.006-.233-.019-.731,0-.1c-.005-.193-.011-.39-.016-.587v-.039l-.015-.54,0-.164-.015-.534,0-.132q-.009-.285-.016-.572l0-.1q-.009-.294-.018-.591l0-.091q-.009-.313-.019-.627v-.018q-.01-.324-.021-.649V167.1l-.021-.643,0-.056q-.01-.306-.021-.61l0-.1q-.01-.294-.021-.588l0-.116c-.007-.194-.014-.388-.022-.58l0-.1q-.012-.3-.024-.6l0-.076q-.012-.3-.025-.6l0-.064c-.009-.2-.018-.406-.027-.607v-.021c-.009-.2-.018-.394-.028-.588l0-.051c-.01-.191-.019-.38-.029-.567l0-.069q-.015-.273-.03-.538l0-.047a.161.161,0,0,0-.116-.143c-.074-.018-.144-.036-.214-.055l-.072-.018h0c-2.716-.762-2.5-2.633-2.5-2.633l.19-.027.146-.022.018,0,.173-.027.034-.006.216-.035.038-.006.535-.087.085-.014.248-.041.807-.132.023,0a.168.168,0,0,0,.14-.177l-.006-.074-.013-.124c0-.049-.01-.1-.015-.143s-.008-.08-.013-.118-.011-.092-.016-.137-.009-.074-.014-.109-.012-.089-.018-.131-.009-.069-.014-.1-.013-.086-.02-.128-.009-.059-.014-.089c-.007-.044-.015-.086-.022-.129l-.013-.074c-.008-.046-.016-.089-.025-.132l-.011-.057c-.011-.061-.024-.119-.036-.175-.033-.131.132-.428.46-.526l.106-.031.034-.009.078-.021.054-.014.068-.018.049-.011.077-.018.061-.014.072-.015.066-.013.073-.014.068-.011.076-.012.069-.01.079-.011.072-.009.08-.009.076-.007.08-.006.077,0,.082,0,.078,0h.247l.079,0,.086,0,.081.007.086.008.081.011.086.012.082.014.085.016.081.019c.029.006.057.013.085.021l.081.023.085.025.08.028.084.03.079.032.083.036.078.037.081.041.076.042.08.047.076.049c.026.017.052.034.078.053l.074.054.075.059c.024.019.048.04.071.061s.049.043.074.066.046.044.069.066l.071.073c.022.024.044.049.066.074s.046.053.068.08l.064.081c.022.029.044.058.065.087l.06.089c.021.031.041.062.061.094s.039.064.057.1.039.067.057.1.036.068.054.1c.009.018.019.035.029.054a.161.161,0,0,0,.17.091l.1-.016.231-.038.157-.026.206-.034.192-.032.184-.03.154-.026.24-.04.078-.013.285-.047.108-.018.627-.106.171-.029c.4-.068.8-.135,1.181-.2l.091-.016.215-.038.139-.024.168-.029.186-.033.157-.028.176-.031.158-.028.183-.033.138-.025.185-.034.15-.028.16-.029.157-.029.154-.029.146-.028.153-.029.142-.027.146-.028.134-.026.146-.028.124-.025.142-.028.119-.024.133-.027.116-.024.123-.026.114-.024.113-.024.109-.024.107-.024.1-.023.1-.022.094-.022.092-.022.083-.02.084-.021.077-.02.074-.019.07-.019.067-.019.059-.017.1-.032a.674.674,0,0,1,.073.075l0,0,.036.046.029.037c.015.02.03.044.046.066l.027.04c.019.029.037.061.056.093l.019.031c.025.044.05.091.076.141l.009.019c.022.044.044.089.066.136l.026.059c.016.036.031.072.047.11l.028.071.042.109.028.08c.013.037.026.074.038.111s.018.057.027.086l.034.113.025.092.03.115c.008.032.015.064.022.1l.026.116c.006.033.012.066.019.1s.014.079.021.118.01.068.014.1.011.079.016.119.007.069.01.1.007.079.009.119,0,.069.005.1,0,.079,0,.118,0,.069,0,.1,0,.078,0,.117,0,.069-.007.1-.007.077-.011.115-.009.068-.014.1-.012.075-.019.112-.014.066-.021.1-.019.073-.029.109-.019.064-.029.1-.024.07-.038.1-.024.061-.037.091-.031.067-.048.1-.03.059-.046.088-.038.063-.059.094-.036.055-.055.082-.046.059-.071.089S392.361,159.058,392.338,159.083Zm6.235,1.947c-.179,6.111-.8,12.931-.8,12.931l-.035.275a3.412,3.412,0,0,1-.974,1.986,21.837,21.837,0,0,1-2.2,2.051c-.176-.016-.175-.463-.175-.463h0c-.215-2.431-.366-18.738-1.125-22.214a.608.608,0,0,1,.428-.494c.948-.271,2.961-.571,4.093,1.109a4.958,4.958,0,0,0-.288,2.216A4.136,4.136,0,0,0,398.573,161.03Zm20.836-5.04a5.555,5.555,0,0,1-4.048,4.344c-1.678.066-3.225.165-4.607.231-.159,5.363-.79,11.326-1.028,13.431a5.18,5.18,0,0,1-.411,1.517,16.439,16.439,0,0,1-.72,1.51c-.144.169-1.154,1.586-1.322,1.922a.392.392,0,0,1-.195.162.807.807,0,0,1-1.119-.724c-.106-2.867-.115-11.56-.372-17.555-2.962.164-4.641.263-5.2.3-2.764.065-2.83-5.332-1.053-5.6a44.548,44.548,0,0,1,5.891-.3,1.028,1.028,0,0,1,.362-.264,4.29,4.29,0,0,1,3.521.363C412.367,155.464,415.888,155.727,419.409,155.991Z" transform="translate(-314.839 -69.827)" fill="#fff"/>
      </g>
    </g>
  </g>
</svg>
