<svg id="Group_6" data-name="Group 6" xmlns="http://www.w3.org/2000/svg" width="20.386" height="20.386" viewBox="0 0 20.386 20.386">
  <g id="Group_5" data-name="Group 5" transform="translate(0)">
    <path id="Path_5" data-name="Path 5" d="M20.335,17.468a.8.8,0,0,0-1.559.325.832.832,0,0,1-.169.7.809.809,0,0,1-.637.3H2.417a.809.809,0,0,1-.637-.3.832.832,0,0,1-.169-.7,8.8,8.8,0,0,1,8.371-6.967q.105,0,.211,0t.212,0a8.76,8.76,0,0,1,7.075,3.888.8.8,0,1,0,1.323-.887A10.358,10.358,0,0,0,13.435,9.75a5.415,5.415,0,1,0-6.482,0,10.357,10.357,0,0,0-6.9,7.717,2.419,2.419,0,0,0,2.365,2.918H17.97a2.419,2.419,0,0,0,2.365-2.918ZM6.371,5.415a3.822,3.822,0,1,1,4.016,3.818l-.193,0-.193,0A3.827,3.827,0,0,1,6.371,5.415Z" transform="translate(0)" fill="#fff"/>
  </g>
</svg>
